<?xml version="1.0" encoding="utf-8"?>
<!-- Generator: Adobe Illustrator 23.0.0, SVG Export Plug-In . SVG Version: 6.00 Build 0)  -->
<svg version="1.1" id="Layer_1" xmlns="http://www.w3.org/2000/svg" xmlns:xlink="http://www.w3.org/1999/xlink" x="0px" y="0px"
	 viewBox="0 0 512 512" style="enable-background:new 0 0 512 512;" xml:space="preserve">
<style type="text/css">
	.st0{fill:#FFFFFF;}
	.st1{fill:#FC0000;}
</style>
<rect class="st0" width="512" height="512"/>
<path class="st1" d="M504.4,115.8c-0.1-0.2-0.2-0.5-0.3-0.7c-0.1-0.4-0.3-0.8-0.5-1.3c-0.2-0.2-0.3-0.5-0.5-0.7
	c-0.2-0.3-0.5-0.6-0.7-0.9c-0.2-0.2-0.5-0.4-0.8-0.6c-0.3-0.2-0.6-0.5-0.9-0.7l-96.3-55.4c-2.5-1.4-5.5-1.4-8,0L300.1,111l0,0
	c-0.3,0.2-0.6,0.4-0.9,0.7c-0.3,0.2-0.5,0.4-0.8,0.6c-0.3,0.3-0.5,0.6-0.7,0.9c-0.2,0.2-0.4,0.4-0.5,0.7c-0.2,0.4-0.4,0.8-0.5,1.3
	c-0.1,0.2-0.2,0.4-0.3,0.7c-0.2,0.7-0.3,1.4-0.3,2.1v105.2l-80.2,46.2V63.4c0-0.7-0.1-1.4-0.3-2.1c-0.1-0.2-0.2-0.5-0.3-0.7
	c-0.1-0.4-0.3-0.8-0.5-1.2c-0.1-0.3-0.4-0.5-0.5-0.7c-0.2-0.3-0.5-0.6-0.7-0.9c-0.2-0.2-0.5-0.4-0.8-0.6c-0.3-0.2-0.6-0.5-0.9-0.7
	l0,0L115.6,1.1c-2.5-1.4-5.5-1.4-8,0L11.3,56.5l0,0c-0.3,0.2-0.6,0.4-0.9,0.7c-0.3,0.2-0.5,0.4-0.8,0.6c-0.3,0.3-0.5,0.6-0.7,0.9
	c-0.2,0.3-0.4,0.5-0.6,0.7c-0.2,0.4-0.4,0.8-0.5,1.2c-0.1,0.2-0.2,0.4-0.3,0.7c-0.2,0.7-0.3,1.4-0.3,2.1v329.7c0,2.9,1.5,5.5,4,7
	l192.5,110.8c0.4,0.2,0.9,0.4,1.3,0.5c0.2,0.1,0.4,0.2,0.6,0.3c1.3,0.4,2.8,0.4,4.1,0c0.2,0,0.4-0.2,0.6-0.2c0.5-0.2,1-0.3,1.4-0.6
	l192.6-110.8c2.5-1.4,4-4.1,4-7V287.9l92.2-53.1c2.5-1.4,4-4.1,4-7V117.9C504.6,117.2,504.6,116.5,504.4,115.8z M111.6,17.3
	L111.6,17.3l80.2,46.2l-80.2,46.2L31.4,63.4L111.6,17.3z M199.9,77.3v201.3l-46.5,26.8l-33.7,19.4V123.5l46.5-26.8L199.9,77.3z
	 M199.9,490.1L23.4,388.5V77.3l33.7,19.4l46.5,26.8v215.2c0,0.3,0.1,0.6,0.1,0.9c0,0.4,0.1,0.8,0.2,1.2l0,0c0.1,0.3,0.2,0.6,0.4,0.9
	c0.1,0.3,0.3,0.7,0.4,1l0,0c0.2,0.3,0.4,0.5,0.6,0.8c0.2,0.3,0.4,0.6,0.7,0.8l0,0c0.2,0.2,0.5,0.4,0.8,0.6c0.3,0.2,0.6,0.5,0.9,0.7
	l0,0l0,0l92.2,52.2L199.9,490.1z M207.9,383.9l-80.1-45.3l84.1-48.4l92.3-53.1l80.1,46.1l-58.8,33.6L207.9,383.9z M392.4,388.5
	L215.9,490.1v-92.3l130.7-74.6l45.8-26.1V388.5z M392.4,269.3L358.7,250l-46.5-26.8v-91.4l33.7,19.4l46.5,26.8V269.3z M400.4,164.1
	l-80.2-46.2l80.2-46.2l80.2,46.2L400.4,164.1z M408.4,269.3V178l46.6-26.8l33.7-19.4v91.4l0,0L408.4,269.3z"/>
</svg>
